PathFileType	4	(X/Y/Z)	./resultDataOpenSim/trcMotMarkerGrf/sub06/qtm-05-02.trc
DataRate	CameraRate	NumFrames	NumMarkers	Units	OrigDataRate	OrigDataStartFrame	OrigNumFrames
250.000000	250.000000	14	24	m	250.000000	341	545
Frame#	Time	L.Toe.Tip			R.Toe.Tip			L.Ankle.Lat			R.Ankle.Lat			L.Ankle.Med			R.Ankle.Med			L.Heel			R.Heel			L.Knee.Lat			R.Knee.Lat			L.Knee.Med			R.Knee.Med			L.Thigh.Upper			R.Thigh.Upper			L.ASIS			R.ASIS			V.Sacral			L.Acromium			R.Acromium			C7			L.Elbow			R.Elbow			L.Wrist.Lat			R.Wrist.Lat
		X1	Y1	Z1	X2	Y2	Z2	X3	Y3	Z3	X4	Y4	Z4	X5	Y5	Z5	X6	Y6	Z6	X7	Y7	Z7	X8	Y8	Z8	X9	Y9	Z9	X10	Y10	Z10	X11	Y11	Z11	X12	Y12	Z12	X13	Y13	Z13	X14	Y14	Z14	X15	Y15	Z15	X16	Y16	Z16	X17	Y17	Z17	X18	Y18	Z18	X19	Y19	Z19	X20	Y20	Z20	X21	Y21	Z21	X22	Y22	Z22	X23	Y23	Z23	X24	Y24	Z24

341	1.36	0.37331981	0.10173355	-0.047182692	0.87339566	0.036890768	0.12351808	0.38439263	0.2325189	-0.076406133	0.73727551	0.058335927	0.14797367	0.40528518	0.23524788	0.0058562554	0.75841416	0.083148644	0.062437705	0.3408084	0.29155871	-0.025870941	0.68255638	0.038212173	0.087669364	0.72853622	0.3751273	-0.10901129	0.82708381	0.4366134	0.18925217	0.73182468	0.35880663	0.013291358	0.79469257	0.42894772	0.066415362	0.6415657	0.75878251	-0.089152996	0.68170428	0.78675948	0.2499546	0.72085493	0.81367395	-0.058804417	0.75831478	0.8378486	0.18340356	0.55226044	0.89710253	0.085439768	0.68231196	1.3207393	-0.083124875	0.69547961	1.2725558	0.27620013	0.60821604	1.3348551	0.10328447	0.66575259	1.0017692	-0.16298577	0.62573398	0.95827098	0.3298339	0.85242448	0.83666489	-0.16095135	0.80732479	0.79470044	0.363571
342	1.364	0.38478779	0.10481815	-0.047201751	0.87327969	0.036920183	0.1235193	0.39560591	0.23555017	-0.076543728	0.73700164	0.058346387	0.14816443	0.41652703	0.2383859	0.0056298606	0.75826875	0.083261828	0.06255184	0.3517832	0.29454496	-0.026126762	0.68242371	0.038274147	0.087568852	0.73939913	0.37857667	-0.10883422	0.82778974	0.43677907	0.18933582	0.74263549	0.36218971	0.013697786	0.79507216	0.42907251	0.066421139	0.64765462	0.76134064	-0.089633117	0.68634284	0.78849703	0.25025109	0.72715967	0.81621803	-0.057901749	0.76319144	0.84007622	0.1840739	0.55747766	0.89924987	0.085696044	0.68737445	1.3229887	-0.082893431	0.7004332	1.2750937	0.27646331	0.61323406	1.3370794	0.10349533	0.66862139	1.0044031	-0.1625321	0.63229116	0.96014333	0.32982	0.85296803	0.8367851	-0.16244543	0.81652754	0.79907978	0.36244201
343	1.368	0.3963782	0.10766239	-0.047243256	0.87317504	0.036947717	0.12350335	0.4068659	0.23835951	-0.07666878	0.7367418	0.05835891	0.14833536	0.42778308	0.2412858	0.0054453595	0.75813521	0.083373439	0.06265763	0.36275821	0.29726558	-0.026346569	0.68227759	0.03833056	0.087630419	0.75020296	0.38207578	-0.10858101	0.82846752	0.43694007	0.18935245	0.75340706	0.36565575	0.014137077	0.79546082	0.42919316	0.066323534	0.65353738	0.76392306	-0.090013272	0.69118513	0.79028579	0.2505692	0.73310473	0.81877821	-0.057209335	0.7680749	0.84227223	0.18470843	0.56281795	0.90141212	0.08619875	0.69245612	1.3252087	-0.082671291	0.70538587	1.2776328	0.27672553	0.61837411	1.3391947	0.1035744	0.67149834	1.0070225	-0.16208708	0.63885376	0.96204202	0.32981216	0.85347478	0.83696379	-0.16393084	0.8255714	0.80345615	0.36126585
344	1.372	0.4081005	0.11026465	-0.047319728	0.8730796	0.036972447	0.12346676	0.41817289	0.24094275	-0.076783451	0.73655441	0.058367738	0.14846375	0.43899593	0.2439595	0.0053396347	0.75800243	0.083494048	0.062776322	0.37373373	0.29971583	-0.026537547	0.68212322	0.038365241	0.08792124	0.76093925	0.38561891	-0.10827465	0.82911614	0.43710017	0.18932855	0.76407029	0.36919129	0.01463025	0.79581623	0.42930716	0.066184457	0.6592249	0.76653437	-0.090239559	0.69622345	0.79209919	0.25081628	0.73866104	0.82133256	-0.056693332	0.77296344	0.84442736	0.1853151	0.56826202	0.90358969	0.086961626	0.69755934	1.3273979	-0.082451452	0.7103375	1.2801697	0.27698468	0.62365459	1.3411835	0.10350576	0.67438996	1.0096227	-0.16165776	0.64541838	0.96396378	0.32980383	0.85396385	0.8371905	-0.16538801	0.83446834	0.80781394	0.36004226
345	1.376	0.41996973	0.11262569	-0.047442667	0.87299212	0.036992431	0.1234088	0.42950907	0.24329807	-0.076890021	0.73643896	0.058376092	0.14855334	0.45016226	0.24641294	0.0052991391	0.75786893	0.083622394	0.062909271	0.38471168	0.30188512	-0.026702382	0.68197805	0.038378203	0.088373673	0.77157817	0.38920762	-0.10793988	0.82973319	0.43726413	0.18928371	0.77453466	0.37279255	0.015205434	0.79612536	0.42941259	0.066047884	0.66492918	0.76918396	-0.090310204	0.70156712	0.7939452	0.25089901	0.7440567	0.82386954	-0.056186432	0.77785932	0.84653215	0.18590395	0.57369022	0.90576166	0.087816803	0.70268263	1.3295524	-0.082231457	0.71528456	1.2826975	0.27723706	0.62897461	1.3431184	0.10338717	0.67729848	1.0121998	-0.16124821	0.65197283	0.96590127	0.3297825	0.85443834	0.83743532	-0.16681519	0.84326219	0.81216118	0.35878074
346	1.38	0.43200671	0.11474696	-0.047614043	0.87291217	0.03700698	0.12333305	0.44085126	0.24542895	-0.076988909	0.73636486	0.0583797	0.14861575	0.46130226	0.24864911	0.0052856742	0.75773901	0.083749836	0.063039815	0.39568068	0.30376503	-0.026837777	0.68185124	0.038387446	0.088836072	0.78210003	0.39284211	-0.10758648	0.83031204	0.43743652	0.18921155	0.7847523	0.37646929	0.015875078	0.79637468	0.42952724	0.065925611	0.67091198	0.77186521	-0.090264334	0.70724574	0.79582994	0.25079218	0.74949622	0.8263852	-0.055591488	0.78276353	0.84857588	0.18648249	0.57897217	0.90789662	0.088530286	0.70781885	1.3316659	-0.082015905	0.72022729	1.2852088	0.27748181	0.63419468	1.3451016	0.10335087	0.6802236	1.0147511	-0.16085844	0.65850735	0.96784359	0.32974248	0.85487498	0.83767876	-0.16823227	0.85200044	0.81651005	0.35749349
347	1.384	0.44423665	0.11663082	-0.047826151	0.87283812	0.037016976	0.12324567	0.45219074	0.24733291	-0.077079728	0.73630625	0.058374849	0.14865904	0.4724649	0.25066976	0.0052563363	0.75761409	0.083869665	0.06315077	0.40660489	0.30535324	-0.026940424	0.68173348	0.038412546	0.089189661	0.79252108	0.39651129	-0.10720172	0.83083625	0.4376197	0.18908274	0.79478369	0.38023092	0.016610852	0.79652683	0.4296963	0.065806514	0.67721753	0.7745443	-0.090203444	0.71292123	0.7976875	0.25063973	0.75504398	0.82888026	-0.05493187	0.78767381	0.85054819	0.18705571	0.58410096	0.90997551	0.089011798	0.71295932	1.3337317	-0.081810567	0.72517004	1.2876974	0.27771981	0.63927324	1.3471602	0.1034373	0.68316439	1.0172742	-0.1604865	0.66502221	0.96978137	0.32969436	0.85524726	0.83792816	-0.16965639	0.86070059	0.82085805	0.35618763
348	1.388	0.45668635	0.11828086	-0.048068003	0.87276697	0.037023375	0.12315278	0.46354473	0.24898926	-0.077164776	0.73624489	0.0583705	0.14869205	0.48370866	0.25247715	0.0051811175	0.75749238	0.083982357	0.063237298	0.41745155	0.3066459	-0.027022773	0.68161638	0.038458513	0.089416898	0.8028766	0.40019604	-0.10676518	0.83128758	0.43780904	0.18887833	0.80475253	0.38406216	0.017366692	0.79658186	0.42995092	0.065690119	0.68366129	0.77719211	-0.090217782	0.71785314	0.79934828	0.25077229	0.76069298	0.83135605	-0.054252176	0.79258786	0.85244087	0.18762839	0.5891712	0.91199707	0.08933123	0.71809914	1.3357468	-0.08161477	0.73011654	1.2901588	0.27795025	0.64426459	1.3492445	0.10359375	0.68612014	1.0197663	-0.16013014	0.67152542	0.97171027	0.3296544	0.85555331	0.83820119	-0.17108394	0.86936004	0.8251999	0.35486681
349	1.392	0.46937603	0.11969967	-0.048327806	0.87269605	0.037026805	0.12305873	0.47494708	0.25036218	-0.07725141	0.73617087	0.058376113	0.14872193	0.49502176	0.25407667	0.0050744578	0.75737128	0.084093155	0.063304688	0.42822504	0.3076341	-0.027116316	0.68150403	0.038518123	0.08956244	0.81318612	0.40388103	-0.10626831	0.83166053	0.4379942	0.18861659	0.81470607	0.38792239	0.018135799	0.79662351	0.43026583	0.065594786	0.69006253	0.77980925	-0.090294105	0.72155212	0.80064818	0.25143714	0.76640966	0.83381035	-0.053576479	0.79750489	0.85424997	0.18820459	0.59426893	0.91396643	0.089598719	0.72323773	1.3377141	-0.081422645	0.73506967	1.2925877	0.27817189	0.6492306	1.3512996	0.10375683	0.68909046	1.022225	-0.15978744	0.67802344	0.9736285	0.32962555	0.85581413	0.83850789	-0.17250302	0.87798462	0.82953968	0.35353549
350	1.396	0.48229898	0.12088622	-0.048580284	0.87262365	0.037027991	0.12296521	0.4864031	0.25143496	-0.077337911	0.73608136	0.058392668	0.14875309	0.50633499	0.25547241	0.004983885	0.7572483	0.084206411	0.063360513	0.43894836	0.30831503	-0.027248527	0.6814009	0.038583114	0.089671184	0.82345246	0.40755467	-0.10570775	0.83197301	0.43817268	0.18834143	0.8246292	0.39177422	0.018935649	0.79662736	0.43060926	0.065501623	0.69635295	0.78240591	-0.090358922	0.72462097	0.80164282	0.25241069	0.77214828	0.83624085	-0.052919119	0.80242293	0.85597562	0.1887847	0.59943309	0.91588749	0.089896436	0.72837828	1.339637	-0.081231109	0.74003155	1.2949781	0.27838581	0.65420289	1.3533019	0.10389691	0.69207517	1.0246472	-0.15945673	0.68451436	0.97553233	0.32959889	0.85605704	0.83885383	-0.17390727	0.88659601	0.83388463	0.35219979
351	1.4	0.49542271	0.12184048	-0.048785837	0.87254892	0.037027965	0.12287141	0.49787205	0.25224294	-0.077401321	0.73597829	0.058417054	0.14879	0.51761344	0.25666322	0.0049396969	0.75712124	0.084323829	0.063412553	0.44961948	0.30869628	-0.027415001	0.68130707	0.038649354	0.089766096	0.83367162	0.41120616	-0.10507823	0.83226589	0.43836158	0.18809514	0.834551	0.39560236	0.01975234	0.79629913	0.43101125	0.065348861	0.70251361	0.78497453	-0.090381218	0.72826279	0.8026116	0.25316121	0.77787134	0.83864976	-0.052285609	0.80733755	0.85761862	0.18936439	0.60467202	0.91776076	0.090246375	0.73353169	1.3415126	-0.08104717	0.745	1.2973253	0.27859317	0.6591889	1.3552508	0.10401718	0.69507413	1.02703	-0.15913649	0.69099361	0.9774157	0.32957292	0.85629814	0.83924128	-0.17529518	0.89520267	0.83823412	0.35086296
352	1.404	0.50875146	0.12257157	-0.048940837	0.87247314	0.0370287	0.12277504	0.50933262	0.25284294	-0.077423941	0.73586917	0.058445161	0.14883508	0.52884827	0.25764525	0.0049468595	0.75698666	0.084445479	0.063471597	0.46021412	0.30878339	-0.027582794	0.68122542	0.038716748	0.089851339	0.84381849	0.41483541	-0.10438939	0.83257404	0.43858271	0.18789813	0.84449573	0.3994104	0.020559154	0.79550604	0.43150839	0.065130481	0.70852349	0.78749932	-0.090414429	0.73291277	0.8037579	0.25345195	0.78356854	0.84103734	-0.05167014	0.81224444	0.85917887	0.18993891	0.60995263	0.91958252	0.090600742	0.73871507	1.3433386	-0.080892662	0.7499705	1.2996254	0.27879236	0.6641821	1.3571509	0.10413513	0.69808712	1.0293704	-0.15882514	0.69746272	0.97927302	0.32955709	0.85653235	0.83966006	-0.1766633	0.90376051	0.84256678	0.34951671
353	1.408	0.52233887	0.12309188	-0.049098814	0.87240008	0.037032442	0.12267512	0.52082094	0.25325575	-0.077419057	0.73576334	0.058473642	0.14888736	0.54004983	0.25840899	0.0049958745	0.75683479	0.0845706	0.063555584	0.47073821	0.30856984	-0.027731023	0.68115814	0.038785853	0.089927706	0.85385222	0.41845153	-0.10366722	0.83289125	0.4388352	0.18774112	0.85443055	0.4032127	0.021356631	0.79469018	0.43205782	0.064913414	0.71438652	0.78997713	-0.090529114	0.73808641	0.80503268	0.25346496	0.78925859	0.84338994	-0.051060579	0.8171394	0.86065512	0.19050753	0.61515428	0.92135308	0.090928513	0.7439337	1.3451185	-0.08078953	0.75494406	1.3018739	0.27898162	0.66917325	1.359005	0.10425913	0.70111383	1.0316658	-0.15852102	0.70392609	0.98110005	0.32955734	0.85675192	0.8400932	-0.17800055	0.91220407	0.84684553	0.34814552
354	1.412	0.53617823	0.12340445	-0.049284709	0.87233238	0.037039064	0.12257551	0.53237519	0.25346347	-0.07741148	0.73566635	0.05850094	0.14894572	0.55128441	0.25893857	0.0050625634	0.75664719	0.084699855	0.063690323	0.48125507	0.3080379	-0.02787463	0.68109537	0.03885398	0.090006927	0.86375112	0.42205232	-0.10292948	0.83318359	0.43909567	0.18760371	0.86432307	0.40702573	0.02216302	0.79435161	0.43257175	0.064725648	0.72021969	0.79240647	-0.090697166	0.74322272	0.80628581	0.25344286	0.79495579	0.84568333	-0.050447885	0.82201839	0.86204554	0.19107154	0.62005049	0.92309217	0.091322955	0.74916322	1.3468469	-0.08072356	0.75992652	1.3040662	0.27916171	0.67415682	1.3608126	0.10437789	0.70415388	1.0339137	-0.15822244	0.71038288	0.98289168	0.32957277	0.85696597	0.84053093	-0.17929641	0.92052159	0.85104801	0.34674492
